<svg width="139" height="138" xmlns="http://www.w3.org/2000/svg">
 <g>
  <title>Layer 1</title>
  <ellipse stroke="#4d4d4d" ry="10" rx="10" id="svg_1" cy="72.013159" cx="68.899125" stroke-width="1.5" fill="#f7931a"/>
  <ellipse stroke="#4d4d4d" ry="10" rx="10" id="svg_2" cy="28.013159" cx="23.899124" stroke-width="1.5" fill="none"/>
  <ellipse stroke="#4d4d4d" ry="10" rx="10" id="svg_3" cy="28.013159" cx="110.399125" stroke-width="1.5" fill="none"/>
  <ellipse stroke="#4d4d4d" ry="10" rx="10" id="svg_4" cy="116.013159" cx="110.399125" stroke-width="1.5" fill="none"/>
  <ellipse stroke="#4d4d4d" ry="10" rx="10" id="svg_5" cy="116.013159" cx="23.399125" stroke-width="1.5" fill="none"/>
  <line stroke-linecap="null" stroke-linejoin="null" id="svg_6" y2="108.2267" x2="30.750002" y1="78.402139" x1="60.925441" stroke-width="1.5" stroke="#4d4d4d" fill="none"/>
  <line stroke-linecap="null" stroke-linejoin="null" id="svg_7" y2="64.367051" x2="61.627195" y1="34.191613" x1="30.399125" stroke-width="1.5" stroke="#4d4d4d" fill="none"/>
  <line stroke-linecap="null" stroke-linejoin="null" id="svg_8" y2="34.191613" x2="102.679827" y1="64.016174" x1="76.364037" stroke-width="1.5" stroke="#4d4d4d" fill="none"/>
  <line stroke-linecap="null" stroke-linejoin="null" id="svg_9" y2="107.875823" x2="104.083336" y1="79.103893" x1="75.662283" stroke-width="1.5" stroke="#4d4d4d" fill="none"/>
  <ellipse stroke="#4d4d4d" ry="10" rx="10" id="svg_10" cy="127.592106" cx="67.592107" stroke-width="1.5" fill="none"/>
  <ellipse stroke="#4d4d4d" ry="10" rx="10" id="svg_11" cy="72.15351" cx="128.644738" stroke-width="1.5" fill="none"/>
  <ellipse stroke="#4d4d4d" ry="10" rx="10" id="svg_12" cy="10.75" cx="67.942982" stroke-width="1.5" fill="none"/>
  <ellipse stroke="#4d4d4d" ry="10" rx="10" id="svg_13" cy="70.399124" cx="10.75" stroke-width="1.5" fill="none"/>
  <line stroke-linecap="null" stroke-linejoin="null" id="svg_14" y2="62.261788" x2="68.644739" y1="19.805648" x1="67.942985" stroke-width="1.5" stroke="#4d4d4d" fill="none"/>
  <line stroke-linecap="null" stroke-linejoin="null" id="svg_15" y2="72.08635" x2="20.574564" y1="71.384595" x1="58.820178" stroke-width="1.5" stroke="#4d4d4d" fill="none"/>
  <line stroke-linecap="null" stroke-linejoin="null" id="svg_16" y2="71.735472" x2="118.469301" y1="71.735472" x1="79.171055" stroke-width="1.5" stroke="#4d4d4d" fill="none"/>
  <line stroke-linecap="null" stroke-linejoin="null" id="svg_17" y2="116.99863" x2="68.293862" y1="81.910911" x1="68.995616" stroke-width="1.5" stroke="#4d4d4d" fill="none"/>
 </g>
</svg>