<svg width="76" height="30" xmlns="http://www.w3.org/2000/svg">
 <!-- Created with Method Draw - http://github.com/duopixel/Method-Draw/ -->

 <g>
  <title>background</title>
  <rect fill="none" id="canvas_background" height="32" width="78" y="-1" x="-1"/>
  <g display="none" overflow="visible" y="0" x="0" height="100%" width="100%" id="canvasGrid">
   <rect fill="url(#gridpattern)" stroke-width="0" y="1" x="1" height="400" width="580"/>
  </g>
 </g>
 <g>
  <title>Layer 1</title>
  <style transform="matrix(0.36730948011189923,0,0,0.36730948011189923,0,0) " type="text/css">.st0{fill:#3C3C3B;}
	.st1{fill:#8C8C8C;}
	.st2{fill:#393939;}
	.st3{fill:#343434;}
	.st4{fill:#151515;}</style>
  <g id="svg_33">
   <g transform="matrix(0.36730948011189923,0,0,0.36730948011189923,0,0) " id="svg_17">
    <path id="svg_18" d="m73.480341,43.290098c0,0.3 -0.3,0.6 -0.6,0.6l-11.3,0c0.3,2.8 2.4,5.4 5.4,5.4c2,0 3.5,-0.8 4.7,-2.4c0.1,-0.2 0.3,-0.3 0.5,-0.3c0.3,0 0.6,0.2 0.6,0.6c0,0.1 0,0.2 -0.1,0.3c-1.1,2 -3.4,3 -5.6,3c-3.8,0 -6.5,-3.4 -6.5,-7.1c0,-3.7 2.7,-7.1 6.5,-7.1s6.4,3.3 6.4,7m-1.2,-0.6c-0.2,-2.8 -2.4,-5.4 -5.4,-5.4s-5.1,2.6 -5.4,5.4l10.8,0z" class="st0"/>
    <path id="svg_19" d="m87.280341,36.490098c0.3,0 0.6,0.3 0.6,0.6c0,0.3 -0.2,0.6 -0.6,0.6l-3,0l0,11.9c0,0.3 -0.2,0.6 -0.6,0.6c-0.3,0 -0.6,-0.3 -0.6,-0.6l0,-12l-2.9,0c-0.3,0 -0.6,-0.2 -0.6,-0.6c0,-0.3 0.2,-0.6 0.6,-0.6l2.9,0l0,-4.4c0,-0.3 0.2,-0.6 0.6,-0.6c0.3,0 0.6,0.2 0.6,0.6l0,4.4l3,0l0,0.1z" class="st0"/>
    <path id="svg_20" d="m105.880341,42.290098l0,7.2c0,0.3 -0.3,0.6 -0.6,0.6c-0.3,0 -0.6,-0.2 -0.6,-0.6l0,-7.2c0,-2.4 -1.4,-4.9 -4.1,-4.9c-3.5,0 -5,3 -4.8,6.2c0,0.1 0,0.4 0,0.5l0,5.4c0,0.3 -0.2,0.6 -0.6,0.6c-0.3,0 -0.6,-0.2 -0.6,-0.6l0,-23.8c0,-0.3 0.2,-0.6 0.6,-0.6c0.3,0 0.6,0.3 0.6,0.6l0,13.4c1,-1.7 2.7,-2.9 4.8,-2.9c3.4,0 5.3,3 5.3,6.1" class="st0"/>
    <path id="svg_21" d="m126.180341,43.290098c0,0.3 -0.3,0.6 -0.6,0.6l-11.3,0c0.3,2.8 2.4,5.4 5.4,5.4c2,0 3.5,-0.8 4.7,-2.4c0.1,-0.2 0.3,-0.3 0.5,-0.3c0.3,0 0.6,0.2 0.6,0.6c0,0.1 0,0.2 -0.1,0.3c-1.1,2 -3.4,3 -5.6,3c-3.8,0 -6.5,-3.4 -6.5,-7.1c0,-3.7 2.7,-7.1 6.5,-7.1c3.7,-0.1 6.4,3.3 6.4,7m-1.2,-0.6c-0.2,-2.8 -2.4,-5.4 -5.4,-5.4c-3,0 -5.1,2.6 -5.4,5.4l10.8,0z" class="st0"/>
    <path id="svg_22" d="m140.180341,36.990098c0,0.4 -0.2,0.6 -0.5,0.6c-3.3,0.5 -4.8,3.2 -4.8,6.4l0,5.4c0,0.3 -0.2,0.6 -0.6,0.6c-0.3,0 -0.6,-0.2 -0.6,-0.6l0,-12.3c0,-0.3 0.2,-0.6 0.6,-0.6c0.3,0 0.6,0.2 0.6,0.6l0,2.5c0.9,-1.6 2.8,-3.1 4.8,-3.1c0.1,0 0.5,0.2 0.5,0.5" class="st0"/>
    <path id="svg_23" d="m158.780341,43.290098c0,0.3 -0.3,0.6 -0.6,0.6l-11.3,0c0.3,2.8 2.4,5.4 5.4,5.4c2,0 3.5,-0.8 4.7,-2.4c0.1,-0.2 0.3,-0.3 0.5,-0.3c0.3,0 0.6,0.2 0.6,0.6c0,0.1 0,0.2 -0.1,0.3c-1.1,2 -3.4,3 -5.6,3c-3.8,0 -6.5,-3.4 -6.5,-7.1c0,-3.7 2.7,-7.1 6.5,-7.1c3.6,-0.1 6.4,3.3 6.4,7m-1.2,-0.6c-0.2,-2.8 -2.4,-5.4 -5.4,-5.4s-5.1,2.6 -5.4,5.4l10.8,0z" class="st0"/>
    <path id="svg_24" d="m177.080341,37.090098l0,3.9l0,8.5c0,0.3 -0.3,0.6 -0.6,0.6c-0.3,0 -0.6,-0.2 -0.6,-0.6l0,-2.4c-0.9,1.9 -2.6,3.2 -4.7,3.2c-3.4,0 -5.2,-2.9 -5.2,-6l0,-7.3c0,-0.3 0.2,-0.6 0.6,-0.6c0.3,0 0.6,0.3 0.6,0.6l0,7.4c0,2.4 1.4,4.9 4.1,4.9c3.8,0 4.7,-3.6 4.7,-7.5l0,-4.6c0,-0.3 0.2,-0.6 0.6,-0.6c0.2,0 0.5,0.2 0.5,0.5" class="st0"/>
    <path id="svg_25" d="m205.780341,42.190098l0,7.3c0,0.3 -0.3,0.6 -0.6,0.6c-0.3,0 -0.6,-0.2 -0.6,-0.6l0,-7.3c0,-2.4 -1.4,-4.8 -4.1,-4.8c-3.4,0 -4.7,3.7 -4.7,6.5l0,5.6c0,0.3 -0.3,0.6 -0.6,0.6c-0.3,0 -0.6,-0.2 -0.6,-0.6l0,-7.3c0,-2.4 -1.4,-4.8 -4.1,-4.8c-3.5,0 -4.9,2.7 -4.8,6.3c0,0.1 0,0.2 0,0.3l0,5.5c0,0.3 -0.2,0.6 -0.6,0.6c-0.3,0 -0.6,-0.2 -0.6,-0.6l0,-12.4c0,-0.3 0.2,-0.6 0.6,-0.6c0.3,0 0.6,0.2 0.6,0.6l0,2.1c1,-1.7 2.7,-2.9 4.8,-2.9c2.3,0 4.1,1.5 4.8,3.6c0.9,-2.1 2.8,-3.6 5.1,-3.6c3.5,-0.1 5.4,2.8 5.4,5.9" class="st0"/>
   </g>
   <g transform="matrix(0.36730948011189923,0,0,0.36730948011189923,0,0) " id="svg_26">
    <g id="svg_15">
     <polyline id="svg_27" points="1.1803529262542725,45.790090560913086 25.68035316467285,80.39013481140137 25.68035316467285,60.290090560913086 1.1803529262542725,45.790090560913086 " class="st1"/>
    </g>
    <g id="svg_14">
     <polyline id="svg_28" points="1.1803529262542725,41.090078353881836 25.68035316467285,55.690114974975586 25.68035316467285,29.990102767944336 1.1803529262542725,41.090078353881836 " class="st2"/>
    </g>
    <g id="svg_13">
     <polyline id="svg_29" points="1.1803529262542725,41.090078353881836 25.68035316467285,29.990102767944336 25.68035316467285,0.39009761810302734 1.1803529262542725,41.090078353881836 " class="st1"/>
    </g>
    <g id="svg_12">
     <polyline id="svg_30" points="50.28032684326172,45.790090560913086 25.68035316467285,80.39013481140137 25.68035316467285,60.290090560913086 50.28032684326172,45.790090560913086 " class="st3"/>
    </g>
    <g id="svg_11">
     <polyline id="svg_31" points="50.28032684326172,41.090078353881836 25.68035316467285,55.690114974975586 25.68035316467285,29.990102767944336 50.28032684326172,41.090078353881836 " class="st4"/>
    </g>
    <g id="svg_10">
     <polyline id="svg_32" points="50.28032684326172,41.090078353881836 25.68035316467285,29.990102767944336 25.68035316467285,0.39009761810302734 50.28032684326172,41.090078353881836 " class="st3"/>
    </g>
   </g>
  </g>
 </g>
</svg>